G04 #@! TF.GenerationSoftware,KiCad,Pcbnew,(5.0.0)*
G04 #@! TF.CreationDate,2018-11-24T15:46:54-05:00*
G04 #@! TF.ProjectId,SDRRv2,5344525276322E6B696361645F706362,rev?*
G04 #@! TF.SameCoordinates,Original*
G04 #@! TF.FileFunction,Legend,Top*
G04 #@! TF.FilePolarity,Positive*
%FSLAX46Y46*%
G04 Gerber Fmt 4.6, Leading zero omitted, Abs format (unit mm)*
G04 Created by KiCad (PCBNEW (5.0.0)) date 11/24/18 15:46:54*
%MOMM*%
%LPD*%
G01*
G04 APERTURE LIST*
%ADD10C,0.120000*%
%ADD11C,0.127000*%
%ADD12C,0.150000*%
G04 APERTURE END LIST*
D10*
G04 #@! TO.C,C1*
X60828085Y-171587839D02*
X63578085Y-171587839D01*
X69348085Y-171587839D02*
X66598085Y-171587839D01*
X69348085Y-164132276D02*
X69348085Y-171587839D01*
X60828085Y-164132276D02*
X60828085Y-171587839D01*
X61892522Y-163067839D02*
X63578085Y-163067839D01*
X68283648Y-163067839D02*
X66598085Y-163067839D01*
X68283648Y-163067839D02*
X69348085Y-164132276D01*
X61892522Y-163067839D02*
X60828085Y-164132276D01*
X67598085Y-161827839D02*
X67598085Y-162827839D01*
X68098085Y-162327839D02*
X67098085Y-162327839D01*
G04 #@! TO.C,Cc1*
X51618833Y-157369839D02*
X52141337Y-157369839D01*
X51618833Y-155949839D02*
X52141337Y-155949839D01*
G04 #@! TO.C,Cc4*
X57221337Y-185563839D02*
X56698833Y-185563839D01*
X57221337Y-184143839D02*
X56698833Y-184143839D01*
G04 #@! TO.C,Cc5*
X31508085Y-154889091D02*
X31508085Y-154366587D01*
X30088085Y-154889091D02*
X30088085Y-154366587D01*
G04 #@! TO.C,Cc9*
X55595737Y-168444239D02*
X55073233Y-168444239D01*
X55595737Y-167024239D02*
X55073233Y-167024239D01*
G04 #@! TO.C,Cc12*
X41701937Y-186252039D02*
X41179433Y-186252039D01*
X41701937Y-187672039D02*
X41179433Y-187672039D01*
G04 #@! TO.C,Cc13*
X43617833Y-179798039D02*
X44140337Y-179798039D01*
X43617833Y-178378039D02*
X44140337Y-178378039D01*
G04 #@! TO.C,Cc25*
X27488833Y-178581239D02*
X28011337Y-178581239D01*
X27488833Y-180001239D02*
X28011337Y-180001239D01*
G04 #@! TO.C,Cc28*
X58222833Y-155949839D02*
X58745337Y-155949839D01*
X58222833Y-157369839D02*
X58745337Y-157369839D01*
G04 #@! TO.C,Cf1*
X55234085Y-182321091D02*
X55234085Y-181798587D01*
X56654085Y-182321091D02*
X56654085Y-181798587D01*
G04 #@! TO.C,Cf2*
X51379337Y-188131639D02*
X50856833Y-188131639D01*
X51379337Y-189551639D02*
X50856833Y-189551639D01*
G04 #@! TO.C,Cf3*
X52539285Y-182295691D02*
X52539285Y-181773187D01*
X51119285Y-182295691D02*
X51119285Y-181773187D01*
G04 #@! TO.C,Cf4*
X48850233Y-186175839D02*
X49372737Y-186175839D01*
X48850233Y-187595839D02*
X49372737Y-187595839D01*
G04 #@! TO.C,Cf5*
X45046285Y-182321091D02*
X45046285Y-181798587D01*
X43626285Y-182321091D02*
X43626285Y-181798587D01*
G04 #@! TO.C,Cin1*
X32659537Y-180128239D02*
X32137033Y-180128239D01*
X32659537Y-178708239D02*
X32137033Y-178708239D01*
G04 #@! TO.C,D1*
X61274485Y-149419839D02*
X55874485Y-149419839D01*
X61274485Y-146119839D02*
X55874485Y-146119839D01*
X61274485Y-149419839D02*
X61274485Y-146119839D01*
G04 #@! TO.C,D2*
X23215285Y-161617839D02*
X21515285Y-161617839D01*
X21515285Y-161617839D02*
X21515285Y-164767839D01*
X23215285Y-161617839D02*
X23215285Y-164767839D01*
D11*
G04 #@! TO.C,J1*
X87480085Y-190053839D02*
X59380085Y-190053839D01*
X59380085Y-190053839D02*
X59380085Y-179653839D01*
X59380085Y-179653839D02*
X87480085Y-179653839D01*
X87480085Y-179653839D02*
X87480085Y-190053839D01*
D10*
G04 #@! TO.C,J2*
X44260085Y-140873039D02*
X44260085Y-143533039D01*
X44260085Y-140873039D02*
X21340085Y-140873039D01*
X21340085Y-140873039D02*
X21340085Y-143533039D01*
X44260085Y-143533039D02*
X21340085Y-143533039D01*
X46860085Y-143533039D02*
X45530085Y-143533039D01*
X46860085Y-142203039D02*
X46860085Y-143533039D01*
G04 #@! TO.C,J3*
X46860085Y-159453839D02*
X46860085Y-160783839D01*
X46860085Y-160783839D02*
X45530085Y-160783839D01*
X44260085Y-160783839D02*
X21340085Y-160783839D01*
X21340085Y-158123839D02*
X21340085Y-160783839D01*
X44260085Y-158123839D02*
X21340085Y-158123839D01*
X44260085Y-158123839D02*
X44260085Y-160783839D01*
G04 #@! TO.C,L1*
X55163937Y-186125039D02*
X54641433Y-186125039D01*
X55163937Y-187545039D02*
X54641433Y-187545039D01*
G04 #@! TO.C,L2*
X55163937Y-189577039D02*
X54641433Y-189577039D01*
X55163937Y-188157039D02*
X54641433Y-188157039D01*
G04 #@! TO.C,L3*
X53106537Y-184194639D02*
X52584033Y-184194639D01*
X53106537Y-185614639D02*
X52584033Y-185614639D01*
G04 #@! TO.C,L4*
X49347337Y-185614639D02*
X48824833Y-185614639D01*
X49347337Y-184194639D02*
X48824833Y-184194639D01*
G04 #@! TO.C,L5*
X45537337Y-187697439D02*
X45014833Y-187697439D01*
X45537337Y-186277439D02*
X45014833Y-186277439D01*
G04 #@! TO.C,L6*
X45537337Y-184245439D02*
X45014833Y-184245439D01*
X45537337Y-185665439D02*
X45014833Y-185665439D01*
G04 #@! TO.C,FB1*
X57314485Y-172298987D02*
X57314485Y-172821491D01*
X55894485Y-172298987D02*
X55894485Y-172821491D01*
G04 #@! TO.C,R1*
X41165685Y-183728703D02*
X41165685Y-182524575D01*
X42985685Y-183728703D02*
X42985685Y-182524575D01*
G04 #@! TO.C,Rfb1*
X37801233Y-176625439D02*
X38323737Y-176625439D01*
X37801233Y-178045439D02*
X38323737Y-178045439D01*
G04 #@! TO.C,Rfb2*
X39782433Y-178708239D02*
X40304937Y-178708239D01*
X39782433Y-180128239D02*
X40304937Y-180128239D01*
G04 #@! TO.C,Rin1*
X36469537Y-178733639D02*
X35947033Y-178733639D01*
X36469537Y-180153639D02*
X35947033Y-180153639D01*
G04 #@! TO.C,Rpu1*
X22160885Y-167625387D02*
X22160885Y-168147891D01*
X20740885Y-167625387D02*
X20740885Y-168147891D01*
G04 #@! TO.C,Rpu2*
X25770085Y-167625387D02*
X25770085Y-168147891D01*
X27190085Y-167625387D02*
X27190085Y-168147891D01*
G04 #@! TO.C,RV1*
X30738085Y-180983839D02*
X33398085Y-180983839D01*
X30738085Y-188723839D02*
X33398085Y-188723839D01*
X33398085Y-180983839D02*
X33398085Y-184093839D01*
X30738085Y-181553839D02*
X29218085Y-181553839D01*
X30738085Y-180983839D02*
X30738085Y-181553839D01*
X33398085Y-188153839D02*
X33398085Y-188723839D01*
X33398085Y-185613839D02*
X33398085Y-188723839D01*
X30738085Y-183073839D02*
X30738085Y-186633839D01*
G04 #@! TO.C,U1*
X61516485Y-154003839D02*
X61516485Y-152203839D01*
X58296485Y-152203839D02*
X58296485Y-155153839D01*
G04 #@! TO.C,U2*
X52454485Y-152203839D02*
X52454485Y-155153839D01*
X55674485Y-154003839D02*
X55674485Y-152203839D01*
G04 #@! TO.C,U3*
X21647685Y-156594239D02*
X21647685Y-150584239D01*
X28467685Y-154344239D02*
X28467685Y-150584239D01*
X21647685Y-150584239D02*
X22907685Y-150584239D01*
X28467685Y-150584239D02*
X27207685Y-150584239D01*
G04 #@! TO.C,U4*
X54934485Y-171666239D02*
X53674485Y-171666239D01*
X48114485Y-171666239D02*
X49374485Y-171666239D01*
X54934485Y-175426239D02*
X54934485Y-171666239D01*
X48114485Y-177676239D02*
X48114485Y-171666239D01*
G04 #@! TO.C,U5*
X39367685Y-184001239D02*
X39367685Y-182201239D01*
X36147685Y-182201239D02*
X36147685Y-184651239D01*
G04 #@! TO.C,U6*
X25049285Y-168688239D02*
X25049285Y-166788239D01*
X22729285Y-167288239D02*
X22729285Y-168688239D01*
D12*
G04 #@! TO.C,U7*
X27712885Y-163758239D02*
X27737885Y-163758239D01*
X35762885Y-163758239D02*
X35737885Y-163758239D01*
X35762885Y-168408239D02*
X35737885Y-168408239D01*
X27662885Y-169483239D02*
X27662885Y-163758239D01*
X35762885Y-168408239D02*
X35762885Y-163758239D01*
G04 #@! TO.C,U8*
X35762885Y-176891839D02*
X35737885Y-176891839D01*
X27712885Y-176891839D02*
X27737885Y-176891839D01*
X27712885Y-172241839D02*
X27737885Y-172241839D01*
X35812885Y-171166839D02*
X35812885Y-176891839D01*
X27712885Y-172241839D02*
X27712885Y-176891839D01*
G04 #@! TO.C,C1*
X60009627Y-167621505D02*
X60057246Y-167669124D01*
X60104865Y-167811981D01*
X60104865Y-167907219D01*
X60057246Y-168050077D01*
X59962008Y-168145315D01*
X59866770Y-168192934D01*
X59676294Y-168240553D01*
X59533437Y-168240553D01*
X59342961Y-168192934D01*
X59247723Y-168145315D01*
X59152485Y-168050077D01*
X59104865Y-167907219D01*
X59104865Y-167811981D01*
X59152485Y-167669124D01*
X59200104Y-167621505D01*
X60104865Y-166669124D02*
X60104865Y-167240553D01*
X60104865Y-166954839D02*
X59104865Y-166954839D01*
X59247723Y-167050077D01*
X59342961Y-167145315D01*
X59390580Y-167240553D01*
G04 #@! TO.C,Cc1*
X51361046Y-158998181D02*
X51313427Y-159045800D01*
X51170570Y-159093419D01*
X51075332Y-159093419D01*
X50932475Y-159045800D01*
X50837237Y-158950562D01*
X50789618Y-158855324D01*
X50741999Y-158664848D01*
X50741999Y-158521991D01*
X50789618Y-158331515D01*
X50837237Y-158236277D01*
X50932475Y-158141039D01*
X51075332Y-158093419D01*
X51170570Y-158093419D01*
X51313427Y-158141039D01*
X51361046Y-158188658D01*
X52218189Y-159045800D02*
X52122951Y-159093419D01*
X51932475Y-159093419D01*
X51837237Y-159045800D01*
X51789618Y-158998181D01*
X51741999Y-158902943D01*
X51741999Y-158617229D01*
X51789618Y-158521991D01*
X51837237Y-158474372D01*
X51932475Y-158426753D01*
X52122951Y-158426753D01*
X52218189Y-158474372D01*
X53170570Y-159093419D02*
X52599142Y-159093419D01*
X52884856Y-159093419D02*
X52884856Y-158093419D01*
X52789618Y-158236277D01*
X52694380Y-158331515D01*
X52599142Y-158379134D01*
G04 #@! TO.C,Cc4*
X58790427Y-182959877D02*
X58838046Y-183007496D01*
X58885665Y-183150353D01*
X58885665Y-183245591D01*
X58838046Y-183388448D01*
X58742808Y-183483686D01*
X58647570Y-183531305D01*
X58457094Y-183578924D01*
X58314237Y-183578924D01*
X58123761Y-183531305D01*
X58028523Y-183483686D01*
X57933285Y-183388448D01*
X57885665Y-183245591D01*
X57885665Y-183150353D01*
X57933285Y-183007496D01*
X57980904Y-182959877D01*
X58838046Y-182102734D02*
X58885665Y-182197972D01*
X58885665Y-182388448D01*
X58838046Y-182483686D01*
X58790427Y-182531305D01*
X58695189Y-182578924D01*
X58409475Y-182578924D01*
X58314237Y-182531305D01*
X58266618Y-182483686D01*
X58218999Y-182388448D01*
X58218999Y-182197972D01*
X58266618Y-182102734D01*
X58218999Y-181245591D02*
X58885665Y-181245591D01*
X57838046Y-181483686D02*
X58552332Y-181721781D01*
X58552332Y-181102734D01*
G04 #@! TO.C,Cc5*
X33034827Y-155223077D02*
X33082446Y-155270696D01*
X33130065Y-155413553D01*
X33130065Y-155508791D01*
X33082446Y-155651648D01*
X32987208Y-155746886D01*
X32891970Y-155794505D01*
X32701494Y-155842124D01*
X32558637Y-155842124D01*
X32368161Y-155794505D01*
X32272923Y-155746886D01*
X32177685Y-155651648D01*
X32130065Y-155508791D01*
X32130065Y-155413553D01*
X32177685Y-155270696D01*
X32225304Y-155223077D01*
X33082446Y-154365934D02*
X33130065Y-154461172D01*
X33130065Y-154651648D01*
X33082446Y-154746886D01*
X33034827Y-154794505D01*
X32939589Y-154842124D01*
X32653875Y-154842124D01*
X32558637Y-154794505D01*
X32511018Y-154746886D01*
X32463399Y-154651648D01*
X32463399Y-154461172D01*
X32511018Y-154365934D01*
X32130065Y-153461172D02*
X32130065Y-153937362D01*
X32606256Y-153984981D01*
X32558637Y-153937362D01*
X32511018Y-153842124D01*
X32511018Y-153604029D01*
X32558637Y-153508791D01*
X32606256Y-153461172D01*
X32701494Y-153413553D01*
X32939589Y-153413553D01*
X33034827Y-153461172D01*
X33082446Y-153508791D01*
X33130065Y-153604029D01*
X33130065Y-153842124D01*
X33082446Y-153937362D01*
X33034827Y-153984981D01*
G04 #@! TO.C,Cc9*
X55044046Y-166084781D02*
X54996427Y-166132400D01*
X54853570Y-166180019D01*
X54758332Y-166180019D01*
X54615475Y-166132400D01*
X54520237Y-166037162D01*
X54472618Y-165941924D01*
X54424999Y-165751448D01*
X54424999Y-165608591D01*
X54472618Y-165418115D01*
X54520237Y-165322877D01*
X54615475Y-165227639D01*
X54758332Y-165180019D01*
X54853570Y-165180019D01*
X54996427Y-165227639D01*
X55044046Y-165275258D01*
X55901189Y-166132400D02*
X55805951Y-166180019D01*
X55615475Y-166180019D01*
X55520237Y-166132400D01*
X55472618Y-166084781D01*
X55424999Y-165989543D01*
X55424999Y-165703829D01*
X55472618Y-165608591D01*
X55520237Y-165560972D01*
X55615475Y-165513353D01*
X55805951Y-165513353D01*
X55901189Y-165560972D01*
X56377380Y-166180019D02*
X56567856Y-166180019D01*
X56663094Y-166132400D01*
X56710713Y-166084781D01*
X56805951Y-165941924D01*
X56853570Y-165751448D01*
X56853570Y-165370496D01*
X56805951Y-165275258D01*
X56758332Y-165227639D01*
X56663094Y-165180019D01*
X56472618Y-165180019D01*
X56377380Y-165227639D01*
X56329761Y-165275258D01*
X56282142Y-165370496D01*
X56282142Y-165608591D01*
X56329761Y-165703829D01*
X56377380Y-165751448D01*
X56472618Y-165799067D01*
X56663094Y-165799067D01*
X56758332Y-165751448D01*
X56805951Y-165703829D01*
X56853570Y-165608591D01*
G04 #@! TO.C,Cc12*
X40369256Y-188969181D02*
X40321637Y-189016800D01*
X40178780Y-189064419D01*
X40083542Y-189064419D01*
X39940685Y-189016800D01*
X39845446Y-188921562D01*
X39797827Y-188826324D01*
X39750208Y-188635848D01*
X39750208Y-188492991D01*
X39797827Y-188302515D01*
X39845446Y-188207277D01*
X39940685Y-188112039D01*
X40083542Y-188064419D01*
X40178780Y-188064419D01*
X40321637Y-188112039D01*
X40369256Y-188159658D01*
X41226399Y-189016800D02*
X41131161Y-189064419D01*
X40940685Y-189064419D01*
X40845446Y-189016800D01*
X40797827Y-188969181D01*
X40750208Y-188873943D01*
X40750208Y-188588229D01*
X40797827Y-188492991D01*
X40845446Y-188445372D01*
X40940685Y-188397753D01*
X41131161Y-188397753D01*
X41226399Y-188445372D01*
X42178780Y-189064419D02*
X41607351Y-189064419D01*
X41893065Y-189064419D02*
X41893065Y-188064419D01*
X41797827Y-188207277D01*
X41702589Y-188302515D01*
X41607351Y-188350134D01*
X42559732Y-188159658D02*
X42607351Y-188112039D01*
X42702589Y-188064419D01*
X42940685Y-188064419D01*
X43035923Y-188112039D01*
X43083542Y-188159658D01*
X43131161Y-188254896D01*
X43131161Y-188350134D01*
X43083542Y-188492991D01*
X42512113Y-189064419D01*
X43131161Y-189064419D01*
G04 #@! TO.C,Cc13*
X42807656Y-177795181D02*
X42760037Y-177842800D01*
X42617180Y-177890419D01*
X42521942Y-177890419D01*
X42379085Y-177842800D01*
X42283846Y-177747562D01*
X42236227Y-177652324D01*
X42188608Y-177461848D01*
X42188608Y-177318991D01*
X42236227Y-177128515D01*
X42283846Y-177033277D01*
X42379085Y-176938039D01*
X42521942Y-176890419D01*
X42617180Y-176890419D01*
X42760037Y-176938039D01*
X42807656Y-176985658D01*
X43664799Y-177842800D02*
X43569561Y-177890419D01*
X43379085Y-177890419D01*
X43283846Y-177842800D01*
X43236227Y-177795181D01*
X43188608Y-177699943D01*
X43188608Y-177414229D01*
X43236227Y-177318991D01*
X43283846Y-177271372D01*
X43379085Y-177223753D01*
X43569561Y-177223753D01*
X43664799Y-177271372D01*
X44617180Y-177890419D02*
X44045751Y-177890419D01*
X44331465Y-177890419D02*
X44331465Y-176890419D01*
X44236227Y-177033277D01*
X44140989Y-177128515D01*
X44045751Y-177176134D01*
X44950513Y-176890419D02*
X45569561Y-176890419D01*
X45236227Y-177271372D01*
X45379085Y-177271372D01*
X45474323Y-177318991D01*
X45521942Y-177366610D01*
X45569561Y-177461848D01*
X45569561Y-177699943D01*
X45521942Y-177795181D01*
X45474323Y-177842800D01*
X45379085Y-177890419D01*
X45093370Y-177890419D01*
X44998132Y-177842800D01*
X44950513Y-177795181D01*
G04 #@! TO.C,Cc25*
X26653256Y-181324781D02*
X26605637Y-181372400D01*
X26462780Y-181420019D01*
X26367542Y-181420019D01*
X26224685Y-181372400D01*
X26129446Y-181277162D01*
X26081827Y-181181924D01*
X26034208Y-180991448D01*
X26034208Y-180848591D01*
X26081827Y-180658115D01*
X26129446Y-180562877D01*
X26224685Y-180467639D01*
X26367542Y-180420019D01*
X26462780Y-180420019D01*
X26605637Y-180467639D01*
X26653256Y-180515258D01*
X27510399Y-181372400D02*
X27415161Y-181420019D01*
X27224685Y-181420019D01*
X27129446Y-181372400D01*
X27081827Y-181324781D01*
X27034208Y-181229543D01*
X27034208Y-180943829D01*
X27081827Y-180848591D01*
X27129446Y-180800972D01*
X27224685Y-180753353D01*
X27415161Y-180753353D01*
X27510399Y-180800972D01*
X27891351Y-180515258D02*
X27938970Y-180467639D01*
X28034208Y-180420019D01*
X28272304Y-180420019D01*
X28367542Y-180467639D01*
X28415161Y-180515258D01*
X28462780Y-180610496D01*
X28462780Y-180705734D01*
X28415161Y-180848591D01*
X27843732Y-181420019D01*
X28462780Y-181420019D01*
X29367542Y-180420019D02*
X28891351Y-180420019D01*
X28843732Y-180896210D01*
X28891351Y-180848591D01*
X28986589Y-180800972D01*
X29224685Y-180800972D01*
X29319923Y-180848591D01*
X29367542Y-180896210D01*
X29415161Y-180991448D01*
X29415161Y-181229543D01*
X29367542Y-181324781D01*
X29319923Y-181372400D01*
X29224685Y-181420019D01*
X28986589Y-181420019D01*
X28891351Y-181372400D01*
X28843732Y-181324781D01*
G04 #@! TO.C,Cc28*
X57565056Y-158896581D02*
X57517437Y-158944200D01*
X57374580Y-158991819D01*
X57279342Y-158991819D01*
X57136485Y-158944200D01*
X57041246Y-158848962D01*
X56993627Y-158753724D01*
X56946008Y-158563248D01*
X56946008Y-158420391D01*
X56993627Y-158229915D01*
X57041246Y-158134677D01*
X57136485Y-158039439D01*
X57279342Y-157991819D01*
X57374580Y-157991819D01*
X57517437Y-158039439D01*
X57565056Y-158087058D01*
X58422199Y-158944200D02*
X58326961Y-158991819D01*
X58136485Y-158991819D01*
X58041246Y-158944200D01*
X57993627Y-158896581D01*
X57946008Y-158801343D01*
X57946008Y-158515629D01*
X57993627Y-158420391D01*
X58041246Y-158372772D01*
X58136485Y-158325153D01*
X58326961Y-158325153D01*
X58422199Y-158372772D01*
X58803151Y-158087058D02*
X58850770Y-158039439D01*
X58946008Y-157991819D01*
X59184104Y-157991819D01*
X59279342Y-158039439D01*
X59326961Y-158087058D01*
X59374580Y-158182296D01*
X59374580Y-158277534D01*
X59326961Y-158420391D01*
X58755532Y-158991819D01*
X59374580Y-158991819D01*
X59946008Y-158420391D02*
X59850770Y-158372772D01*
X59803151Y-158325153D01*
X59755532Y-158229915D01*
X59755532Y-158182296D01*
X59803151Y-158087058D01*
X59850770Y-158039439D01*
X59946008Y-157991819D01*
X60136485Y-157991819D01*
X60231723Y-158039439D01*
X60279342Y-158087058D01*
X60326961Y-158182296D01*
X60326961Y-158229915D01*
X60279342Y-158325153D01*
X60231723Y-158372772D01*
X60136485Y-158420391D01*
X59946008Y-158420391D01*
X59850770Y-158468010D01*
X59803151Y-158515629D01*
X59755532Y-158610867D01*
X59755532Y-158801343D01*
X59803151Y-158896581D01*
X59850770Y-158944200D01*
X59946008Y-158991819D01*
X60136485Y-158991819D01*
X60231723Y-158944200D01*
X60279342Y-158896581D01*
X60326961Y-158801343D01*
X60326961Y-158610867D01*
X60279342Y-158515629D01*
X60231723Y-158468010D01*
X60136485Y-158420391D01*
G04 #@! TO.C,Cf1*
X55593304Y-179648381D02*
X55545685Y-179696000D01*
X55402827Y-179743619D01*
X55307589Y-179743619D01*
X55164732Y-179696000D01*
X55069494Y-179600762D01*
X55021875Y-179505524D01*
X54974256Y-179315048D01*
X54974256Y-179172191D01*
X55021875Y-178981715D01*
X55069494Y-178886477D01*
X55164732Y-178791239D01*
X55307589Y-178743619D01*
X55402827Y-178743619D01*
X55545685Y-178791239D01*
X55593304Y-178838858D01*
X55879018Y-179076953D02*
X56259970Y-179076953D01*
X56021875Y-179743619D02*
X56021875Y-178886477D01*
X56069494Y-178791239D01*
X56164732Y-178743619D01*
X56259970Y-178743619D01*
X57117113Y-179743619D02*
X56545685Y-179743619D01*
X56831399Y-179743619D02*
X56831399Y-178743619D01*
X56736161Y-178886477D01*
X56640923Y-178981715D01*
X56545685Y-179029334D01*
G04 #@! TO.C,Cf2*
X47439904Y-189605181D02*
X47392285Y-189652800D01*
X47249427Y-189700419D01*
X47154189Y-189700419D01*
X47011332Y-189652800D01*
X46916094Y-189557562D01*
X46868475Y-189462324D01*
X46820856Y-189271848D01*
X46820856Y-189128991D01*
X46868475Y-188938515D01*
X46916094Y-188843277D01*
X47011332Y-188748039D01*
X47154189Y-188700419D01*
X47249427Y-188700419D01*
X47392285Y-188748039D01*
X47439904Y-188795658D01*
X47725618Y-189033753D02*
X48106570Y-189033753D01*
X47868475Y-189700419D02*
X47868475Y-188843277D01*
X47916094Y-188748039D01*
X48011332Y-188700419D01*
X48106570Y-188700419D01*
X48392285Y-188795658D02*
X48439904Y-188748039D01*
X48535142Y-188700419D01*
X48773237Y-188700419D01*
X48868475Y-188748039D01*
X48916094Y-188795658D01*
X48963713Y-188890896D01*
X48963713Y-188986134D01*
X48916094Y-189128991D01*
X48344665Y-189700419D01*
X48963713Y-189700419D01*
G04 #@! TO.C,Cf3*
X51427704Y-179648381D02*
X51380085Y-179696000D01*
X51237227Y-179743619D01*
X51141989Y-179743619D01*
X50999132Y-179696000D01*
X50903894Y-179600762D01*
X50856275Y-179505524D01*
X50808656Y-179315048D01*
X50808656Y-179172191D01*
X50856275Y-178981715D01*
X50903894Y-178886477D01*
X50999132Y-178791239D01*
X51141989Y-178743619D01*
X51237227Y-178743619D01*
X51380085Y-178791239D01*
X51427704Y-178838858D01*
X51713418Y-179076953D02*
X52094370Y-179076953D01*
X51856275Y-179743619D02*
X51856275Y-178886477D01*
X51903894Y-178791239D01*
X51999132Y-178743619D01*
X52094370Y-178743619D01*
X52332465Y-178743619D02*
X52951513Y-178743619D01*
X52618180Y-179124572D01*
X52761037Y-179124572D01*
X52856275Y-179172191D01*
X52903894Y-179219810D01*
X52951513Y-179315048D01*
X52951513Y-179553143D01*
X52903894Y-179648381D01*
X52856275Y-179696000D01*
X52761037Y-179743619D01*
X52475323Y-179743619D01*
X52380085Y-179696000D01*
X52332465Y-179648381D01*
G04 #@! TO.C,Cf4*
X48735304Y-183534581D02*
X48687685Y-183582200D01*
X48544827Y-183629819D01*
X48449589Y-183629819D01*
X48306732Y-183582200D01*
X48211494Y-183486962D01*
X48163875Y-183391724D01*
X48116256Y-183201248D01*
X48116256Y-183058391D01*
X48163875Y-182867915D01*
X48211494Y-182772677D01*
X48306732Y-182677439D01*
X48449589Y-182629819D01*
X48544827Y-182629819D01*
X48687685Y-182677439D01*
X48735304Y-182725058D01*
X49021018Y-182963153D02*
X49401970Y-182963153D01*
X49163875Y-183629819D02*
X49163875Y-182772677D01*
X49211494Y-182677439D01*
X49306732Y-182629819D01*
X49401970Y-182629819D01*
X50163875Y-182963153D02*
X50163875Y-183629819D01*
X49925780Y-182582200D02*
X49687685Y-183296486D01*
X50306732Y-183296486D01*
G04 #@! TO.C,Cf5*
X46496827Y-181851819D02*
X46544446Y-181899439D01*
X46592065Y-182042296D01*
X46592065Y-182137534D01*
X46544446Y-182280391D01*
X46449208Y-182375629D01*
X46353970Y-182423248D01*
X46163494Y-182470867D01*
X46020637Y-182470867D01*
X45830161Y-182423248D01*
X45734923Y-182375629D01*
X45639685Y-182280391D01*
X45592065Y-182137534D01*
X45592065Y-182042296D01*
X45639685Y-181899439D01*
X45687304Y-181851819D01*
X45925399Y-181566105D02*
X45925399Y-181185153D01*
X46592065Y-181423248D02*
X45734923Y-181423248D01*
X45639685Y-181375629D01*
X45592065Y-181280391D01*
X45592065Y-181185153D01*
X45592065Y-180375629D02*
X45592065Y-180851819D01*
X46068256Y-180899439D01*
X46020637Y-180851819D01*
X45973018Y-180756581D01*
X45973018Y-180518486D01*
X46020637Y-180423248D01*
X46068256Y-180375629D01*
X46163494Y-180328010D01*
X46401589Y-180328010D01*
X46496827Y-180375629D01*
X46544446Y-180423248D01*
X46592065Y-180518486D01*
X46592065Y-180756581D01*
X46544446Y-180851819D01*
X46496827Y-180899439D01*
G04 #@! TO.C,Cin1*
X34812827Y-183094781D02*
X34860446Y-183142400D01*
X34908065Y-183285258D01*
X34908065Y-183380496D01*
X34860446Y-183523353D01*
X34765208Y-183618591D01*
X34669970Y-183666210D01*
X34479494Y-183713829D01*
X34336637Y-183713829D01*
X34146161Y-183666210D01*
X34050923Y-183618591D01*
X33955685Y-183523353D01*
X33908065Y-183380496D01*
X33908065Y-183285258D01*
X33955685Y-183142400D01*
X34003304Y-183094781D01*
X34908065Y-182666210D02*
X34241399Y-182666210D01*
X33908065Y-182666210D02*
X33955685Y-182713829D01*
X34003304Y-182666210D01*
X33955685Y-182618591D01*
X33908065Y-182666210D01*
X34003304Y-182666210D01*
X34241399Y-182190019D02*
X34908065Y-182190019D01*
X34336637Y-182190019D02*
X34289018Y-182142400D01*
X34241399Y-182047162D01*
X34241399Y-181904305D01*
X34289018Y-181809067D01*
X34384256Y-181761448D01*
X34908065Y-181761448D01*
X34908065Y-180761448D02*
X34908065Y-181332877D01*
X34908065Y-181047162D02*
X33908065Y-181047162D01*
X34050923Y-181142400D01*
X34146161Y-181237639D01*
X34193780Y-181332877D01*
G04 #@! TO.C,D1*
X56247389Y-150762219D02*
X56247389Y-149762219D01*
X56485485Y-149762219D01*
X56628342Y-149809839D01*
X56723580Y-149905077D01*
X56771199Y-150000315D01*
X56818818Y-150190791D01*
X56818818Y-150333648D01*
X56771199Y-150524124D01*
X56723580Y-150619362D01*
X56628342Y-150714600D01*
X56485485Y-150762219D01*
X56247389Y-150762219D01*
X57771199Y-150762219D02*
X57199770Y-150762219D01*
X57485485Y-150762219D02*
X57485485Y-149762219D01*
X57390246Y-149905077D01*
X57295008Y-150000315D01*
X57199770Y-150047934D01*
G04 #@! TO.C,D2*
X24646465Y-164281334D02*
X23646465Y-164281334D01*
X23646465Y-164043239D01*
X23694085Y-163900381D01*
X23789323Y-163805143D01*
X23884561Y-163757524D01*
X24075037Y-163709905D01*
X24217894Y-163709905D01*
X24408370Y-163757524D01*
X24503608Y-163805143D01*
X24598846Y-163900381D01*
X24646465Y-164043239D01*
X24646465Y-164281334D01*
X23741704Y-163328953D02*
X23694085Y-163281334D01*
X23646465Y-163186096D01*
X23646465Y-162948000D01*
X23694085Y-162852762D01*
X23741704Y-162805143D01*
X23836942Y-162757524D01*
X23932180Y-162757524D01*
X24075037Y-162805143D01*
X24646465Y-163376572D01*
X24646465Y-162757524D01*
G04 #@! TO.C,J1*
X64183781Y-178761632D02*
X64899481Y-178761632D01*
X65042621Y-178809345D01*
X65138048Y-178904772D01*
X65185761Y-179047912D01*
X65185761Y-179143339D01*
X65185761Y-177759652D02*
X65185761Y-178332212D01*
X65185761Y-178045932D02*
X64183781Y-178045932D01*
X64326921Y-178141359D01*
X64422348Y-178236785D01*
X64470061Y-178332212D01*
G04 #@! TO.C,J2*
X47752465Y-142536372D02*
X48466751Y-142536372D01*
X48609608Y-142583991D01*
X48704846Y-142679229D01*
X48752465Y-142822086D01*
X48752465Y-142917324D01*
X47847704Y-142107800D02*
X47800085Y-142060181D01*
X47752465Y-141964943D01*
X47752465Y-141726848D01*
X47800085Y-141631610D01*
X47847704Y-141583991D01*
X47942942Y-141536372D01*
X48038180Y-141536372D01*
X48181037Y-141583991D01*
X48752465Y-142155419D01*
X48752465Y-141536372D01*
G04 #@! TO.C,J3*
X47752465Y-159787172D02*
X48466751Y-159787172D01*
X48609608Y-159834791D01*
X48704846Y-159930029D01*
X48752465Y-160072886D01*
X48752465Y-160168124D01*
X47752465Y-159406219D02*
X47752465Y-158787172D01*
X48133418Y-159120505D01*
X48133418Y-158977648D01*
X48181037Y-158882410D01*
X48228656Y-158834791D01*
X48323894Y-158787172D01*
X48561989Y-158787172D01*
X48657227Y-158834791D01*
X48704846Y-158882410D01*
X48752465Y-158977648D01*
X48752465Y-159263362D01*
X48704846Y-159358600D01*
X48657227Y-159406219D01*
G04 #@! TO.C,L1*
X57996665Y-186925505D02*
X57996665Y-187401696D01*
X56996665Y-187401696D01*
X57996665Y-186068362D02*
X57996665Y-186639791D01*
X57996665Y-186354077D02*
X56996665Y-186354077D01*
X57139523Y-186449315D01*
X57234761Y-186544553D01*
X57282380Y-186639791D01*
G04 #@! TO.C,L2*
X57996665Y-189186105D02*
X57996665Y-189662296D01*
X56996665Y-189662296D01*
X57091904Y-188900391D02*
X57044285Y-188852772D01*
X56996665Y-188757534D01*
X56996665Y-188519439D01*
X57044285Y-188424200D01*
X57091904Y-188376581D01*
X57187142Y-188328962D01*
X57282380Y-188328962D01*
X57425237Y-188376581D01*
X57996665Y-188948010D01*
X57996665Y-188328962D01*
G04 #@! TO.C,L3*
X53872418Y-183528219D02*
X53396227Y-183528219D01*
X53396227Y-182528219D01*
X54110513Y-182528219D02*
X54729561Y-182528219D01*
X54396227Y-182909172D01*
X54539085Y-182909172D01*
X54634323Y-182956791D01*
X54681942Y-183004410D01*
X54729561Y-183099648D01*
X54729561Y-183337743D01*
X54681942Y-183432981D01*
X54634323Y-183480600D01*
X54539085Y-183528219D01*
X54253370Y-183528219D01*
X54158132Y-183480600D01*
X54110513Y-183432981D01*
G04 #@! TO.C,L4*
X49071818Y-182207419D02*
X48595627Y-182207419D01*
X48595627Y-181207419D01*
X49833723Y-181540753D02*
X49833723Y-182207419D01*
X49595627Y-181159800D02*
X49357532Y-181874086D01*
X49976580Y-181874086D01*
G04 #@! TO.C,L5*
X45109418Y-189089819D02*
X44633227Y-189089819D01*
X44633227Y-188089819D01*
X45918942Y-188089819D02*
X45442751Y-188089819D01*
X45395132Y-188566010D01*
X45442751Y-188518391D01*
X45537989Y-188470772D01*
X45776085Y-188470772D01*
X45871323Y-188518391D01*
X45918942Y-188566010D01*
X45966561Y-188661248D01*
X45966561Y-188899343D01*
X45918942Y-188994581D01*
X45871323Y-189042200D01*
X45776085Y-189089819D01*
X45537989Y-189089819D01*
X45442751Y-189042200D01*
X45395132Y-188994581D01*
G04 #@! TO.C,L6*
X45973018Y-183629819D02*
X45496827Y-183629819D01*
X45496827Y-182629819D01*
X46734923Y-182629819D02*
X46544446Y-182629819D01*
X46449208Y-182677439D01*
X46401589Y-182725058D01*
X46306351Y-182867915D01*
X46258732Y-183058391D01*
X46258732Y-183439343D01*
X46306351Y-183534581D01*
X46353970Y-183582200D01*
X46449208Y-183629819D01*
X46639685Y-183629819D01*
X46734923Y-183582200D01*
X46782542Y-183534581D01*
X46830161Y-183439343D01*
X46830161Y-183201248D01*
X46782542Y-183106010D01*
X46734923Y-183058391D01*
X46639685Y-183010772D01*
X46449208Y-183010772D01*
X46353970Y-183058391D01*
X46306351Y-183106010D01*
X46258732Y-183201248D01*
G04 #@! TO.C,FB1*
X58183056Y-173393572D02*
X58183056Y-173726905D01*
X58706865Y-173726905D02*
X57706865Y-173726905D01*
X57706865Y-173250715D01*
X58183056Y-172536429D02*
X58230675Y-172393572D01*
X58278294Y-172345953D01*
X58373532Y-172298334D01*
X58516389Y-172298334D01*
X58611627Y-172345953D01*
X58659246Y-172393572D01*
X58706865Y-172488810D01*
X58706865Y-172869762D01*
X57706865Y-172869762D01*
X57706865Y-172536429D01*
X57754485Y-172441191D01*
X57802104Y-172393572D01*
X57897342Y-172345953D01*
X57992580Y-172345953D01*
X58087818Y-172393572D01*
X58135437Y-172441191D01*
X58183056Y-172536429D01*
X58183056Y-172869762D01*
X58706865Y-171345953D02*
X58706865Y-171917381D01*
X58706865Y-171631667D02*
X57706865Y-171631667D01*
X57849723Y-171726905D01*
X57944961Y-171822143D01*
X57992580Y-171917381D01*
G04 #@! TO.C,R1*
X40708065Y-183293305D02*
X40231875Y-183626639D01*
X40708065Y-183864734D02*
X39708065Y-183864734D01*
X39708065Y-183483781D01*
X39755685Y-183388543D01*
X39803304Y-183340924D01*
X39898542Y-183293305D01*
X40041399Y-183293305D01*
X40136637Y-183340924D01*
X40184256Y-183388543D01*
X40231875Y-183483781D01*
X40231875Y-183864734D01*
X40708065Y-182340924D02*
X40708065Y-182912353D01*
X40708065Y-182626639D02*
X39708065Y-182626639D01*
X39850923Y-182721877D01*
X39946161Y-182817115D01*
X39993780Y-182912353D01*
G04 #@! TO.C,Rfb1*
X38072123Y-174231819D02*
X37738789Y-173755629D01*
X37500694Y-174231819D02*
X37500694Y-173231819D01*
X37881646Y-173231819D01*
X37976885Y-173279439D01*
X38024504Y-173327058D01*
X38072123Y-173422296D01*
X38072123Y-173565153D01*
X38024504Y-173660391D01*
X37976885Y-173708010D01*
X37881646Y-173755629D01*
X37500694Y-173755629D01*
X38357837Y-173565153D02*
X38738789Y-173565153D01*
X38500694Y-174231819D02*
X38500694Y-173374677D01*
X38548313Y-173279439D01*
X38643551Y-173231819D01*
X38738789Y-173231819D01*
X39072123Y-174231819D02*
X39072123Y-173231819D01*
X39072123Y-173612772D02*
X39167361Y-173565153D01*
X39357837Y-173565153D01*
X39453075Y-173612772D01*
X39500694Y-173660391D01*
X39548313Y-173755629D01*
X39548313Y-174041343D01*
X39500694Y-174136581D01*
X39453075Y-174184200D01*
X39357837Y-174231819D01*
X39167361Y-174231819D01*
X39072123Y-174184200D01*
X40500694Y-174231819D02*
X39929265Y-174231819D01*
X40214980Y-174231819D02*
X40214980Y-173231819D01*
X40119742Y-173374677D01*
X40024504Y-173469915D01*
X39929265Y-173517534D01*
G04 #@! TO.C,Rfb2*
X40154923Y-175933619D02*
X39821589Y-175457429D01*
X39583494Y-175933619D02*
X39583494Y-174933619D01*
X39964446Y-174933619D01*
X40059685Y-174981239D01*
X40107304Y-175028858D01*
X40154923Y-175124096D01*
X40154923Y-175266953D01*
X40107304Y-175362191D01*
X40059685Y-175409810D01*
X39964446Y-175457429D01*
X39583494Y-175457429D01*
X40440637Y-175266953D02*
X40821589Y-175266953D01*
X40583494Y-175933619D02*
X40583494Y-175076477D01*
X40631113Y-174981239D01*
X40726351Y-174933619D01*
X40821589Y-174933619D01*
X41154923Y-175933619D02*
X41154923Y-174933619D01*
X41154923Y-175314572D02*
X41250161Y-175266953D01*
X41440637Y-175266953D01*
X41535875Y-175314572D01*
X41583494Y-175362191D01*
X41631113Y-175457429D01*
X41631113Y-175743143D01*
X41583494Y-175838381D01*
X41535875Y-175886000D01*
X41440637Y-175933619D01*
X41250161Y-175933619D01*
X41154923Y-175886000D01*
X42012065Y-175028858D02*
X42059685Y-174981239D01*
X42154923Y-174933619D01*
X42393018Y-174933619D01*
X42488256Y-174981239D01*
X42535875Y-175028858D01*
X42583494Y-175124096D01*
X42583494Y-175219334D01*
X42535875Y-175362191D01*
X41964446Y-175933619D01*
X42583494Y-175933619D01*
G04 #@! TO.C,Rin1*
X36773542Y-175882819D02*
X36440208Y-175406629D01*
X36202113Y-175882819D02*
X36202113Y-174882819D01*
X36583065Y-174882819D01*
X36678304Y-174930439D01*
X36725923Y-174978058D01*
X36773542Y-175073296D01*
X36773542Y-175216153D01*
X36725923Y-175311391D01*
X36678304Y-175359010D01*
X36583065Y-175406629D01*
X36202113Y-175406629D01*
X37202113Y-175882819D02*
X37202113Y-175216153D01*
X37202113Y-174882819D02*
X37154494Y-174930439D01*
X37202113Y-174978058D01*
X37249732Y-174930439D01*
X37202113Y-174882819D01*
X37202113Y-174978058D01*
X37678304Y-175216153D02*
X37678304Y-175882819D01*
X37678304Y-175311391D02*
X37725923Y-175263772D01*
X37821161Y-175216153D01*
X37964018Y-175216153D01*
X38059256Y-175263772D01*
X38106875Y-175359010D01*
X38106875Y-175882819D01*
X39106875Y-175882819D02*
X38535446Y-175882819D01*
X38821161Y-175882819D02*
X38821161Y-174882819D01*
X38725923Y-175025677D01*
X38630685Y-175120915D01*
X38535446Y-175168534D01*
G04 #@! TO.C,Rpu1*
X22004865Y-172564867D02*
X21528675Y-172898200D01*
X22004865Y-173136296D02*
X21004865Y-173136296D01*
X21004865Y-172755343D01*
X21052485Y-172660105D01*
X21100104Y-172612486D01*
X21195342Y-172564867D01*
X21338199Y-172564867D01*
X21433437Y-172612486D01*
X21481056Y-172660105D01*
X21528675Y-172755343D01*
X21528675Y-173136296D01*
X21338199Y-172136296D02*
X22338199Y-172136296D01*
X21385818Y-172136296D02*
X21338199Y-172041058D01*
X21338199Y-171850581D01*
X21385818Y-171755343D01*
X21433437Y-171707724D01*
X21528675Y-171660105D01*
X21814389Y-171660105D01*
X21909627Y-171707724D01*
X21957246Y-171755343D01*
X22004865Y-171850581D01*
X22004865Y-172041058D01*
X21957246Y-172136296D01*
X21338199Y-170802962D02*
X22004865Y-170802962D01*
X21338199Y-171231534D02*
X21862008Y-171231534D01*
X21957246Y-171183915D01*
X22004865Y-171088677D01*
X22004865Y-170945819D01*
X21957246Y-170850581D01*
X21909627Y-170802962D01*
X22004865Y-169802962D02*
X22004865Y-170374391D01*
X22004865Y-170088677D02*
X21004865Y-170088677D01*
X21147723Y-170183915D01*
X21242961Y-170279153D01*
X21290580Y-170374391D01*
G04 #@! TO.C,Rpu2*
X26907065Y-172488667D02*
X26430875Y-172822000D01*
X26907065Y-173060096D02*
X25907065Y-173060096D01*
X25907065Y-172679143D01*
X25954685Y-172583905D01*
X26002304Y-172536286D01*
X26097542Y-172488667D01*
X26240399Y-172488667D01*
X26335637Y-172536286D01*
X26383256Y-172583905D01*
X26430875Y-172679143D01*
X26430875Y-173060096D01*
X26240399Y-172060096D02*
X27240399Y-172060096D01*
X26288018Y-172060096D02*
X26240399Y-171964858D01*
X26240399Y-171774381D01*
X26288018Y-171679143D01*
X26335637Y-171631524D01*
X26430875Y-171583905D01*
X26716589Y-171583905D01*
X26811827Y-171631524D01*
X26859446Y-171679143D01*
X26907065Y-171774381D01*
X26907065Y-171964858D01*
X26859446Y-172060096D01*
X26240399Y-170726762D02*
X26907065Y-170726762D01*
X26240399Y-171155334D02*
X26764208Y-171155334D01*
X26859446Y-171107715D01*
X26907065Y-171012477D01*
X26907065Y-170869619D01*
X26859446Y-170774381D01*
X26811827Y-170726762D01*
X26002304Y-170298191D02*
X25954685Y-170250572D01*
X25907065Y-170155334D01*
X25907065Y-169917239D01*
X25954685Y-169822000D01*
X26002304Y-169774381D01*
X26097542Y-169726762D01*
X26192780Y-169726762D01*
X26335637Y-169774381D01*
X26907065Y-170345810D01*
X26907065Y-169726762D01*
G04 #@! TO.C,RV1*
X28100865Y-187989077D02*
X27624675Y-188322410D01*
X28100865Y-188560505D02*
X27100865Y-188560505D01*
X27100865Y-188179553D01*
X27148485Y-188084315D01*
X27196104Y-188036696D01*
X27291342Y-187989077D01*
X27434199Y-187989077D01*
X27529437Y-188036696D01*
X27577056Y-188084315D01*
X27624675Y-188179553D01*
X27624675Y-188560505D01*
X27100865Y-187703362D02*
X28100865Y-187370029D01*
X27100865Y-187036696D01*
X28100865Y-186179553D02*
X28100865Y-186750981D01*
X28100865Y-186465267D02*
X27100865Y-186465267D01*
X27243723Y-186560505D01*
X27338961Y-186655743D01*
X27386580Y-186750981D01*
G04 #@! TO.C,U1*
X56458865Y-153865743D02*
X57268389Y-153865743D01*
X57363627Y-153818124D01*
X57411246Y-153770505D01*
X57458865Y-153675267D01*
X57458865Y-153484791D01*
X57411246Y-153389553D01*
X57363627Y-153341934D01*
X57268389Y-153294315D01*
X56458865Y-153294315D01*
X57458865Y-152294315D02*
X57458865Y-152865743D01*
X57458865Y-152580029D02*
X56458865Y-152580029D01*
X56601723Y-152675267D01*
X56696961Y-152770505D01*
X56744580Y-152865743D01*
G04 #@! TO.C,U2*
X50494265Y-153814943D02*
X51303789Y-153814943D01*
X51399027Y-153767324D01*
X51446646Y-153719705D01*
X51494265Y-153624467D01*
X51494265Y-153433991D01*
X51446646Y-153338753D01*
X51399027Y-153291134D01*
X51303789Y-153243515D01*
X50494265Y-153243515D01*
X50589504Y-152814943D02*
X50541885Y-152767324D01*
X50494265Y-152672086D01*
X50494265Y-152433991D01*
X50541885Y-152338753D01*
X50589504Y-152291134D01*
X50684742Y-152243515D01*
X50779980Y-152243515D01*
X50922837Y-152291134D01*
X51494265Y-152862562D01*
X51494265Y-152243515D01*
G04 #@! TO.C,U3*
X28980465Y-151706743D02*
X29789989Y-151706743D01*
X29885227Y-151659124D01*
X29932846Y-151611505D01*
X29980465Y-151516267D01*
X29980465Y-151325791D01*
X29932846Y-151230553D01*
X29885227Y-151182934D01*
X29789989Y-151135315D01*
X28980465Y-151135315D01*
X28980465Y-150754362D02*
X28980465Y-150135315D01*
X29361418Y-150468648D01*
X29361418Y-150325791D01*
X29409037Y-150230553D01*
X29456656Y-150182934D01*
X29551894Y-150135315D01*
X29789989Y-150135315D01*
X29885227Y-150182934D01*
X29932846Y-150230553D01*
X29980465Y-150325791D01*
X29980465Y-150611505D01*
X29932846Y-150706743D01*
X29885227Y-150754362D01*
G04 #@! TO.C,U4*
X46476865Y-174338143D02*
X47286389Y-174338143D01*
X47381627Y-174290524D01*
X47429246Y-174242905D01*
X47476865Y-174147667D01*
X47476865Y-173957191D01*
X47429246Y-173861953D01*
X47381627Y-173814334D01*
X47286389Y-173766715D01*
X46476865Y-173766715D01*
X46810199Y-172861953D02*
X47476865Y-172861953D01*
X46429246Y-173100048D02*
X47143532Y-173338143D01*
X47143532Y-172719096D01*
G04 #@! TO.C,U5*
X37286265Y-187368343D02*
X38095789Y-187368343D01*
X38191027Y-187320724D01*
X38238646Y-187273105D01*
X38286265Y-187177867D01*
X38286265Y-186987391D01*
X38238646Y-186892153D01*
X38191027Y-186844534D01*
X38095789Y-186796915D01*
X37286265Y-186796915D01*
X37286265Y-185844534D02*
X37286265Y-186320724D01*
X37762456Y-186368343D01*
X37714837Y-186320724D01*
X37667218Y-186225486D01*
X37667218Y-185987391D01*
X37714837Y-185892153D01*
X37762456Y-185844534D01*
X37857694Y-185796915D01*
X38095789Y-185796915D01*
X38191027Y-185844534D01*
X38238646Y-185892153D01*
X38286265Y-185987391D01*
X38286265Y-186225486D01*
X38238646Y-186320724D01*
X38191027Y-186368343D01*
G04 #@! TO.C,U6*
X23341665Y-171798143D02*
X24151189Y-171798143D01*
X24246427Y-171750524D01*
X24294046Y-171702905D01*
X24341665Y-171607667D01*
X24341665Y-171417191D01*
X24294046Y-171321953D01*
X24246427Y-171274334D01*
X24151189Y-171226715D01*
X23341665Y-171226715D01*
X23341665Y-170321953D02*
X23341665Y-170512429D01*
X23389285Y-170607667D01*
X23436904Y-170655286D01*
X23579761Y-170750524D01*
X23770237Y-170798143D01*
X24151189Y-170798143D01*
X24246427Y-170750524D01*
X24294046Y-170702905D01*
X24341665Y-170607667D01*
X24341665Y-170417191D01*
X24294046Y-170321953D01*
X24246427Y-170274334D01*
X24151189Y-170226715D01*
X23913094Y-170226715D01*
X23817856Y-170274334D01*
X23770237Y-170321953D01*
X23722618Y-170417191D01*
X23722618Y-170607667D01*
X23770237Y-170702905D01*
X23817856Y-170750524D01*
X23913094Y-170798143D01*
G04 #@! TO.C,U7*
X26161065Y-165422743D02*
X26970589Y-165422743D01*
X27065827Y-165375124D01*
X27113446Y-165327505D01*
X27161065Y-165232267D01*
X27161065Y-165041791D01*
X27113446Y-164946553D01*
X27065827Y-164898934D01*
X26970589Y-164851315D01*
X26161065Y-164851315D01*
X26161065Y-164470362D02*
X26161065Y-163803696D01*
X27161065Y-164232267D01*
G04 #@! TO.C,U8*
X26237265Y-176014543D02*
X27046789Y-176014543D01*
X27142027Y-175966924D01*
X27189646Y-175919305D01*
X27237265Y-175824067D01*
X27237265Y-175633591D01*
X27189646Y-175538353D01*
X27142027Y-175490734D01*
X27046789Y-175443115D01*
X26237265Y-175443115D01*
X26665837Y-174824067D02*
X26618218Y-174919305D01*
X26570599Y-174966924D01*
X26475361Y-175014543D01*
X26427742Y-175014543D01*
X26332504Y-174966924D01*
X26284885Y-174919305D01*
X26237265Y-174824067D01*
X26237265Y-174633591D01*
X26284885Y-174538353D01*
X26332504Y-174490734D01*
X26427742Y-174443115D01*
X26475361Y-174443115D01*
X26570599Y-174490734D01*
X26618218Y-174538353D01*
X26665837Y-174633591D01*
X26665837Y-174824067D01*
X26713456Y-174919305D01*
X26761075Y-174966924D01*
X26856313Y-175014543D01*
X27046789Y-175014543D01*
X27142027Y-174966924D01*
X27189646Y-174919305D01*
X27237265Y-174824067D01*
X27237265Y-174633591D01*
X27189646Y-174538353D01*
X27142027Y-174490734D01*
X27046789Y-174443115D01*
X26856313Y-174443115D01*
X26761075Y-174490734D01*
X26713456Y-174538353D01*
X26665837Y-174633591D01*
G04 #@! TD*
M02*
