M48
;DRILL file {KiCad (5.0.0)} date 11/24/18 15:48:15
;FORMAT={-:-/ absolute / inch / decimal}
FMAT,2
INCH,TZ
T1C0.0157
T2C0.0394
T3C0.0461
T4C0.0831
%
G90
G05
M72
T1
X0.8299Y-6.4877
X0.8725Y-6.1977
X0.9525Y-5.8277
X0.9658Y-6.6799
X0.9755Y-6.5217
X0.9826Y-6.4743
X1.0125Y-5.8277
X1.0225Y-6.0577
X1.0255Y-6.4177
X1.0565Y-6.9957
X1.1025Y-7.1777
X1.1055Y-6.6892
X1.1125Y-7.3777
X1.1325Y-6.1277
X1.1325Y-6.8077
X1.1495Y-6.9437
X1.1525Y-6.4777
X1.1864Y-7.0323
X1.2625Y-7.1097
X1.2925Y-6.9397
X1.3195Y-6.9397
X1.3515Y-7.0207
X1.3725Y-6.7977
X1.3825Y-6.6077
X1.4102Y-6.9902
X1.4225Y-6.4277
X1.4225Y-7.1277
X1.4525Y-7.3177
X1.7925Y-7.1027
X1.9175Y-7.4527
X1.9325Y-7.0177
X1.9925Y-7.1277
X2.0025Y-6.6577
X2.0325Y-6.8477
X2.0325Y-7.0177
X2.0405Y-6.0917
X2.0525Y-5.9927
X2.0925Y-6.6477
X2.1272Y-6.1281
X2.1325Y-5.8177
X2.1825Y-5.8977
X2.1925Y-6.9277
X2.1985Y-6.0977
X2.2425Y-7.1277
X2.2755Y-6.1007
X2.2805Y-5.9747
X2.3825Y-6.1677
X2.3925Y-5.9277
X2.4225Y-6.0677
X2.5625Y-6.3677
X2.5625Y-6.8077
T2
X0.8925Y-6.2777
X0.9925Y-6.2777
X1.0925Y-6.2777
X1.1925Y-6.2777
X1.2925Y-6.2777
X1.3925Y-6.2777
X1.4925Y-6.2777
X1.5925Y-6.2777
X1.6925Y-6.2777
X1.7925Y-6.2777
X0.8925Y-5.5985
X0.9925Y-5.5985
X1.0925Y-5.5985
X1.1925Y-5.5985
X1.2925Y-5.5985
X1.3925Y-5.5985
X1.4925Y-5.5985
X1.5925Y-5.5985
X1.6925Y-5.5985
X1.7925Y-5.5985
T3
X2.5425Y-7.2777
T4
X2.4126Y-7.1478
X2.4126Y-7.4076
X2.6724Y-7.1478
X2.6724Y-7.4076
T0
M30
